<!DOCTYPE svg PUBLIC "-//W3C//DTD SVG 1.1//EN" "http://www.w3.org/Graphics/SVG/1.1/DTD/svg11.dtd">
<!-- Uploaded to: SVG Repo, www.svgrepo.com, Transformed by: SVG Repo Mixer Tools -->
<svg fill="#000000" width="256px" height="256px" viewBox="0 0 24.00 24.00" id="plastic-bottle-2" data-name="Flat Line" xmlns="http://www.w3.org/2000/svg" class="icon flat-line" transform="rotate(0)matrix(-1, 0, 0, 1, 0, 0)" stroke="#000000">
<g id="SVGRepo_bgCarrier" stroke-width="0" transform="translate(0,0), scale(1)">
<rect x="0" y="0" width="24.00" height="24.00" rx="12" fill="#7ed0ec" strokewidth="0"/>
</g>
<g id="SVGRepo_tracerCarrier" stroke-linecap="round" stroke-linejoin="round" stroke="#CCCCCC" stroke-width="0.096"/>
<g id="SVGRepo_iconCarrier">
<path id="secondary" d="M14,5.59V4a1,1,0,0,0-1-1H11a1,1,0,0,0-1,1V5.59A3.41,3.41,0,0,1,9,8H9a3.41,3.41,0,0,0-1,2.41V12a1,1,0,0,0,1,1h6a1,1,0,0,0,1-1V10.41A3.41,3.41,0,0,0,15,8h0A3.41,3.41,0,0,1,14,5.59ZM16,20V18a1,1,0,0,0-1-1H9a1,1,0,0,0-1,1v2a1,1,0,0,0,1,1h6A1,1,0,0,0,16,20Z" style="fill: #4281ff; stroke-width: 2;"/>
<path id="primary" d="M14,5.59V4a1,1,0,0,0-1-1H11a1,1,0,0,0-1,1V5.59A3.41,3.41,0,0,1,9,8H9a3.41,3.41,0,0,0-1,2.41V12a1,1,0,0,0,1,1h6a1,1,0,0,0,1-1V10.41A3.41,3.41,0,0,0,15,8h0A3.41,3.41,0,0,1,14,5.59ZM16,20V18a1,1,0,0,0-1-1H9a1,1,0,0,0-1,1v2a1,1,0,0,0,1,1h6A1,1,0,0,0,16,20Zm0-4V14a1,1,0,0,0-1-1H9a1,1,0,0,0-1,1v2a1,1,0,0,0,1,1h6A1,1,0,0,0,16,16Z" style="fill: none; stroke: #ffffff; stroke-linecap: round; stroke-linejoin: round; stroke-width: 2;"/>
</g>
</svg>